# xmcd CD database file
#
# Track frame offsets:
#	150
#	21109
#	37319
#	58272
#
# Disc length: 991 seconds
#
# Revision: 2
# Processed by: cddbd v1.5.1PL0 Copyright (c) Steve Scherf et al.
# Submitted via: CDex 1.51
#
DISCID=3503dd04
DTITLE=angela - 未来とゆう名の答え
DYEAR=2005
DGENRE=Anime
TTITLE0=未来とゆう名の答え
TTITLE1=年下未知数脳内HD
TTITLE2=未来とゆう名の答え (off vocal version)
TTITLE3=年下未知数脳内HD (off vocal version)
EXTD=YEAR: 2005
EXTT0=
EXTT1=
EXTT2=
EXTT3=
PLAYORDER=
